<?xml version="1.0" standalone="no"?>
<!DOCTYPE svg PUBLIC "-//W3C//DTD SVG 1.1//EN" "http://www.w3.org/Graphics/SVG/1.1/DTD/svg11.dtd">
<svg width="324" height="324" version="1.1" xmlns="http://www.w3.org/2000/svg">
  <title>20 by 20 orthogonal maze</title>
  <desc>20 by 20 orthogonal maze generated by The Maze Generator Website (http://www.mazegenerator.net/).</desc>
  <g fill="none" stroke="#000000" stroke-width="2" stroke-linecap="square" stroke-linejoin="round">
    <polyline points="266,314 234,314" />
    <polyline points="314,282 314,314 298,314" />
    <polyline points="282,10 314,10 314,26" />
    <polyline points="74,202 58,202" />
    <polyline points="106,138 90,138 90,154 74,154 74,106" />
    <polyline points="74,138 58,138 58,154" />
    <polyline points="122,170 122,154" />
    <polyline points="170,74 154,74 154,122 170,122 170,90" />
    <polyline points="170,122 170,170 186,170 186,186 202,186 202,170" />
    <polyline points="170,170 154,170 154,138" />
    <polyline points="154,122 122,122" />
    <polyline points="170,58 170,42" />
    <polyline points="218,106 202,106 202,74" />
    <polyline points="234,138 218,138" />
    <polyline points="154,218 154,202" />
    <polyline points="170,250 218,250 218,282 282,282 282,266 234,266 234,250 266,250 266,234 218,234" />
    <polyline points="250,234 250,202 282,202 282,218 298,218 298,138 266,138 266,106 298,106 298,74 266,74 266,90 282,90" />
    <polyline points="266,90 250,90 250,154 266,154 266,186 282,186 282,154" />
    <polyline points="250,90 250,74 234,74" />
    <polyline points="266,74 266,42 282,42 282,58 298,58" />
    <polyline points="298,106 298,122 282,122" />
    <polyline points="298,218 298,234 282,234 282,250 298,250 298,266" />
    <polyline points="282,218 266,218" />
    <polyline points="106,218 138,218 138,234 122,234" />
    <polyline points="90,202 90,186 106,186" />
    <polyline points="10,218 10,266 26,266 26,250 90,250 90,266 138,266 138,314 154,314 154,282 170,282 170,266 154,266" />
    <polyline points="170,282 170,298" />
    <polyline points="138,314 122,314 122,298 106,298 106,314 74,314 74,298 10,298 10,314 58,314" />
    <polyline points="10,298 10,282 42,282 42,266 74,266 74,282 122,282" />
    <polyline points="90,282 90,298" />
    <polyline points="74,282 58,282" />
    <polyline points="42,90 42,106 26,106 26,138" />
    <polyline points="58,58 58,74" />
    <polyline points="10,26 10,74 26,74 26,42 42,42" />
    <polyline points="138,10 138,42" />
    <polyline points="154,10 250,10" />
    <polyline points="234,10 234,26" />
  </g>
  <polyline fill="none" stroke="#ff0000" stroke-width="2" stroke-linecap="square" stroke-linejoin="round" points="154,2 154,10 90,10 90,42 74,42 74,10 10,10 10,26 58,26 58,58 42,58 42,90 10,90 10,154 26,154 26,170 10,170 10,186 26,186 26,202 10,202 10,218 26,218 26,234 90,234 90,202 106,202 106,250 170,250 170,234 154,234 154,218 186,218 186,234 202,234 202,218 234,218 234,186 250,186 250,170 234,170 234,122 218,122 218,106 234,106 234,90 218,90 218,58 170,58 170,74 186,74 186,122 202,122 202,138 186,138 186,154 218,154 218,202 170,202 170,186 138,186 138,202 122,202 122,170 138,170 138,138 106,138 106,170 74,170 74,218 42,218 42,186 58,186 58,170 42,170 42,122 58,122 58,90 90,90 90,122 106,122 106,74 74,74 74,58 106,58 106,26 122,26 122,106 138,106 138,58 154,58 154,26 186,26 186,42 202,42 202,26 218,26 218,42 234,42 234,58 250,58 250,26 266,26 266,10 282,10 282,26 298,26 298,42 314,42 314,282 298,282 298,298 282,298 282,314 266,314 266,298 218,298 218,314 202,314 202,266 186,266 186,314 170,314 170,322" />
</svg>
