<?xml version="1.0" standalone="no"?>
<!DOCTYPE svg PUBLIC "-//W3C//DTD SVG 1.1//EN" "http://www.w3.org/Graphics/SVG/1.1/DTD/svg11.dtd">
<svg width="324" height="324" version="1.1" xmlns="http://www.w3.org/2000/svg">
  <title>20 by 20 orthogonal maze</title>
  <desc>20 by 20 orthogonal maze generated by The Maze Generator Website (http://www.mazegenerator.net/).</desc>
  <g fill="none" stroke="#000000" stroke-width="2" stroke-linecap="square">
    <line x1="2" y1="2" x2="146" y2="2" />
    <line x1="162" y1="2" x2="322" y2="2" />
    <line x1="18" y1="18" x2="66" y2="18" />
    <line x1="98" y1="18" x2="130" y2="18" />
    <line x1="146" y1="18" x2="226" y2="18" />
    <line x1="242" y1="18" x2="258" y2="18" />
    <line x1="290" y1="18" x2="306" y2="18" />
    <line x1="18" y1="34" x2="50" y2="34" />
    <line x1="162" y1="34" x2="178" y2="34" />
    <line x1="226" y1="34" x2="242" y2="34" />
    <line x1="258" y1="34" x2="290" y2="34" />
    <line x1="306" y1="34" x2="322" y2="34" />
    <line x1="34" y1="50" x2="50" y2="50" />
    <line x1="66" y1="50" x2="98" y2="50" />
    <line x1="130" y1="50" x2="146" y2="50" />
    <line x1="178" y1="50" x2="226" y2="50" />
    <line x1="290" y1="50" x2="306" y2="50" />
    <line x1="82" y1="66" x2="114" y2="66" />
    <line x1="146" y1="66" x2="162" y2="66" />
    <line x1="178" y1="66" x2="210" y2="66" />
    <line x1="226" y1="66" x2="258" y2="66" />
    <line x1="274" y1="66" x2="306" y2="66" />
    <line x1="2" y1="82" x2="34" y2="82" />
    <line x1="50" y1="82" x2="98" y2="82" />
    <line x1="162" y1="82" x2="178" y2="82" />
    <line x1="226" y1="82" x2="242" y2="82" />
    <line x1="274" y1="82" x2="290" y2="82" />
    <line x1="18" y1="98" x2="34" y2="98" />
    <line x1="66" y1="98" x2="82" y2="98" />
    <line x1="210" y1="98" x2="226" y2="98" />
    <line x1="258" y1="98" x2="290" y2="98" />
    <line x1="34" y1="114" x2="50" y2="114" />
    <line x1="114" y1="114" x2="146" y2="114" />
    <line x1="194" y1="114" x2="210" y2="114" />
    <line x1="226" y1="114" x2="242" y2="114" />
    <line x1="274" y1="114" x2="290" y2="114" />
    <line x1="50" y1="130" x2="66" y2="130" />
    <line x1="82" y1="130" x2="162" y2="130" />
    <line x1="178" y1="130" x2="194" y2="130" />
    <line x1="210" y1="130" x2="226" y2="130" />
    <line x1="274" y1="130" x2="306" y2="130" />
    <line x1="18" y1="146" x2="34" y2="146" />
    <line x1="114" y1="146" x2="130" y2="146" />
    <line x1="194" y1="146" x2="226" y2="146" />
    <line x1="258" y1="146" x2="290" y2="146" />
    <line x1="2" y1="162" x2="18" y2="162" />
    <line x1="50" y1="162" x2="98" y2="162" />
    <line x1="178" y1="162" x2="210" y2="162" />
    <line x1="242" y1="162" x2="258" y2="162" />
    <line x1="18" y1="178" x2="50" y2="178" />
    <line x1="82" y1="178" x2="114" y2="178" />
    <line x1="130" y1="178" x2="178" y2="178" />
    <line x1="226" y1="178" x2="242" y2="178" />
    <line x1="2" y1="194" x2="18" y2="194" />
    <line x1="50" y1="194" x2="66" y2="194" />
    <line x1="98" y1="194" x2="114" y2="194" />
    <line x1="146" y1="194" x2="162" y2="194" />
    <line x1="178" y1="194" x2="210" y2="194" />
    <line x1="242" y1="194" x2="290" y2="194" />
    <line x1="18" y1="210" x2="34" y2="210" />
    <line x1="50" y1="210" x2="66" y2="210" />
    <line x1="114" y1="210" x2="146" y2="210" />
    <line x1="162" y1="210" x2="226" y2="210" />
    <line x1="258" y1="210" x2="274" y2="210" />
    <line x1="34" y1="226" x2="82" y2="226" />
    <line x1="114" y1="226" x2="130" y2="226" />
    <line x1="162" y1="226" x2="178" y2="226" />
    <line x1="210" y1="226" x2="242" y2="226" />
    <line x1="258" y1="226" x2="290" y2="226" />
    <line x1="18" y1="242" x2="98" y2="242" />
    <line x1="114" y1="242" x2="162" y2="242" />
    <line x1="178" y1="242" x2="258" y2="242" />
    <line x1="290" y1="242" x2="306" y2="242" />
    <line x1="34" y1="258" x2="82" y2="258" />
    <line x1="98" y1="258" x2="210" y2="258" />
    <line x1="242" y1="258" x2="290" y2="258" />
    <line x1="2" y1="274" x2="34" y2="274" />
    <line x1="50" y1="274" x2="66" y2="274" />
    <line x1="82" y1="274" x2="130" y2="274" />
    <line x1="146" y1="274" x2="162" y2="274" />
    <line x1="226" y1="274" x2="274" y2="274" />
    <line x1="290" y1="274" x2="306" y2="274" />
    <line x1="18" y1="290" x2="82" y2="290" />
    <line x1="98" y1="290" x2="130" y2="290" />
    <line x1="210" y1="290" x2="290" y2="290" />
    <line x1="18" y1="306" x2="66" y2="306" />
    <line x1="82" y1="306" x2="98" y2="306" />
    <line x1="162" y1="306" x2="178" y2="306" />
    <line x1="226" y1="306" x2="258" y2="306" />
    <line x1="290" y1="306" x2="306" y2="306" />
    <line x1="2" y1="322" x2="162" y2="322" />
    <line x1="178" y1="322" x2="322" y2="322" />
    <line x1="2" y1="2" x2="2" y2="322" />
    <line x1="18" y1="34" x2="18" y2="66" />
    <line x1="18" y1="98" x2="18" y2="146" />
    <line x1="18" y1="226" x2="18" y2="258" />
    <line x1="34" y1="50" x2="34" y2="82" />
    <line x1="34" y1="114" x2="34" y2="226" />
    <line x1="34" y1="258" x2="34" y2="274" />
    <line x1="50" y1="34" x2="50" y2="50" />
    <line x1="50" y1="66" x2="50" y2="114" />
    <line x1="50" y1="130" x2="50" y2="162" />
    <line x1="50" y1="194" x2="50" y2="210" />
    <line x1="50" y1="274" x2="50" y2="290" />
    <line x1="66" y1="18" x2="66" y2="82" />
    <line x1="66" y1="98" x2="66" y2="130" />
    <line x1="66" y1="146" x2="66" y2="194" />
    <line x1="66" y1="306" x2="66" y2="322" />
    <line x1="82" y1="2" x2="82" y2="34" />
    <line x1="82" y1="98" x2="82" y2="146" />
    <line x1="82" y1="178" x2="82" y2="226" />
    <line x1="82" y1="258" x2="82" y2="274" />
    <line x1="82" y1="290" x2="82" y2="306" />
    <line x1="98" y1="18" x2="98" y2="50" />
    <line x1="98" y1="82" x2="98" y2="114" />
    <line x1="98" y1="146" x2="98" y2="162" />
    <line x1="98" y1="210" x2="98" y2="258" />
    <line x1="98" y1="290" x2="98" y2="306" />
    <line x1="114" y1="34" x2="114" y2="130" />
    <line x1="114" y1="146" x2="114" y2="210" />
    <line x1="114" y1="226" x2="114" y2="242" />
    <line x1="114" y1="306" x2="114" y2="322" />
    <line x1="130" y1="18" x2="130" y2="98" />
    <line x1="130" y1="146" x2="130" y2="162" />
    <line x1="130" y1="178" x2="130" y2="194" />
    <line x1="130" y1="274" x2="130" y2="306" />
    <line x1="146" y1="18" x2="146" y2="50" />
    <line x1="146" y1="66" x2="146" y2="114" />
    <line x1="146" y1="130" x2="146" y2="178" />
    <line x1="146" y1="194" x2="146" y2="242" />
    <line x1="146" y1="258" x2="146" y2="306" />
    <line x1="162" y1="34" x2="162" y2="66" />
    <line x1="162" y1="82" x2="162" y2="114" />
    <line x1="162" y1="130" x2="162" y2="162" />
    <line x1="162" y1="194" x2="162" y2="210" />
    <line x1="162" y1="290" x2="162" y2="322" />
    <line x1="178" y1="34" x2="178" y2="50" />
    <line x1="178" y1="82" x2="178" y2="162" />
    <line x1="178" y1="178" x2="178" y2="194" />
    <line x1="178" y1="226" x2="178" y2="242" />
    <line x1="178" y1="258" x2="178" y2="306" />
    <line x1="194" y1="18" x2="194" y2="34" />
    <line x1="194" y1="66" x2="194" y2="114" />
    <line x1="194" y1="162" x2="194" y2="178" />
    <line x1="194" y1="210" x2="194" y2="226" />
    <line x1="194" y1="274" x2="194" y2="322" />
    <line x1="210" y1="34" x2="210" y2="50" />
    <line x1="210" y1="66" x2="210" y2="98" />
    <line x1="210" y1="114" x2="210" y2="146" />
    <line x1="210" y1="162" x2="210" y2="194" />
    <line x1="210" y1="226" x2="210" y2="242" />
    <line x1="210" y1="258" x2="210" y2="306" />
    <line x1="226" y1="18" x2="226" y2="34" />
    <line x1="226" y1="50" x2="226" y2="82" />
    <line x1="226" y1="146" x2="226" y2="210" />
    <line x1="226" y1="242" x2="226" y2="274" />
    <line x1="226" y1="306" x2="226" y2="322" />
    <line x1="242" y1="18" x2="242" y2="50" />
    <line x1="242" y1="82" x2="242" y2="162" />
    <line x1="242" y1="194" x2="242" y2="226" />
    <line x1="258" y1="2" x2="258" y2="18" />
    <line x1="258" y1="34" x2="258" y2="82" />
    <line x1="258" y1="98" x2="258" y2="146" />
    <line x1="258" y1="162" x2="258" y2="194" />
    <line x1="258" y1="210" x2="258" y2="226" />
    <line x1="274" y1="18" x2="274" y2="34" />
    <line x1="274" y1="50" x2="274" y2="66" />
    <line x1="274" y1="114" x2="274" y2="130" />
    <line x1="274" y1="146" x2="274" y2="178" />
    <line x1="274" y1="226" x2="274" y2="258" />
    <line x1="274" y1="290" x2="274" y2="306" />
    <line x1="290" y1="34" x2="290" y2="50" />
    <line x1="290" y1="82" x2="290" y2="98" />
    <line x1="290" y1="146" x2="290" y2="210" />
    <line x1="290" y1="258" x2="290" y2="290" />
    <line x1="290" y1="306" x2="290" y2="322" />
    <line x1="306" y1="18" x2="306" y2="34" />
    <line x1="306" y1="50" x2="306" y2="274" />
    <line x1="306" y1="290" x2="306" y2="306" />
    <line x1="322" y1="2" x2="322" y2="322" />
  </g>
  <polyline fill="none" stroke="#ff0000" stroke-width="2" stroke-linecap="square" stroke-linejoin="round" points="154,2 154,10 90,10 90,42 74,42 74,10 10,10 10,26 58,26 58,58 42,58 42,90 10,90 10,154 26,154 26,170 10,170 10,186 26,186 26,202 10,202 10,218 26,218 26,234 90,234 90,202 106,202 106,250 170,250 170,234 154,234 154,218 186,218 186,234 202,234 202,218 234,218 234,186 250,186 250,170 234,170 234,122 218,122 218,106 234,106 234,90 218,90 218,58 170,58 170,74 186,74 186,122 202,122 202,138 186,138 186,154 218,154 218,202 170,202 170,186 138,186 138,202 122,202 122,170 138,170 138,138 106,138 106,170 74,170 74,218 42,218 42,186 58,186 58,170 42,170 42,122 58,122 58,90 90,90 90,122 106,122 106,74 74,74 74,58 106,58 106,26 122,26 122,106 138,106 138,58 154,58 154,26 186,26 186,42 202,42 202,26 218,26 218,42 234,42 234,58 250,58 250,26 266,26 266,10 282,10 282,26 298,26 298,42 314,42 314,282 298,282 298,298 282,298 282,314 266,314 266,298 218,298 218,314 202,314 202,266 186,266 186,314 170,314 170,322" />
</svg>
